<?xml version="1.0" standalone="no"?>
<!DOCTYPE svg PUBLIC "-//W3C//DTD SVG 20010904//EN"
 "http://www.w3.org/TR/2001/REC-SVG-20010904/DTD/svg10.dtd">
<svg version="1.0" xmlns="http://www.w3.org/2000/svg"
 width="1024.000000pt" height="1024.000000pt" viewBox="0 0 1024.000000 1024.000000"
 preserveAspectRatio="xMidYMid meet">
<metadata>
Created by potrace 1.14, written by Peter Selinger 2001-2017
</metadata>
<g transform="translate(0.000000,1024.000000) scale(0.100000,-0.100000)"
fill="#000000" stroke="none">
<path d="M3905 10082 c-3 -3 -29 -7 -57 -9 -29 -1 -66 -7 -83 -13 -20 -7 -31
-7 -33 0 -2 5 -9 7 -15 3 -15 -9 -30 -12 -87 -18 -25 -2 -45 -4 -45 -5 0 -2
-21 -7 -65 -15 -81 -14 -96 -17 -110 -20 -8 -2 -15 -4 -15 -5 0 -1 -9 -3 -20
-5 -11 -2 -36 -7 -55 -11 -19 -4 -38 -7 -42 -6 -5 1 -8 -2 -8 -7 0 -5 -9 -7
-20 -4 -11 3 -20 1 -20 -4 0 -5 -6 -10 -12 -11 -30 -4 -63 -10 -63 -12 0 -1
-11 -4 -25 -6 -14 -3 -77 -23 -140 -44 -140 -49 -129 -45 -165 -55 -16 -4 -34
-11 -40 -15 -17 -11 -160 -64 -167 -62 -5 1 -8 -2 -8 -7 0 -9 -70 -37 -79 -32
-2 2 -7 -1 -10 -6 -7 -10 -116 -63 -129 -63 -5 0 -15 -7 -22 -15 -7 -8 -16
-12 -21 -9 -5 3 -9 0 -9 -5 0 -6 -5 -11 -12 -11 -12 0 -260 -139 -268 -150 -3
-4 -15 -10 -27 -14 -13 -4 -23 -12 -23 -17 0 -5 -5 -9 -10 -9 -6 0 -16 -5 -23
-10 -7 -6 -37 -26 -67 -46 -30 -20 -59 -42 -65 -49 -5 -6 -13 -13 -18 -13 -23
-4 -267 -197 -354 -279 -24 -24 -47 -43 -49 -43 -3 0 -27 -22 -54 -50 -27 -27
-55 -50 -61 -50 -7 0 -10 -2 -7 -5 3 -3 -34 -46 -82 -95 -48 -50 -85 -90 -82
-90 3 0 -13 -18 -36 -40 -22 -22 -39 -40 -36 -40 2 0 -9 -15 -25 -32 -43 -47
-64 -73 -81 -98 -8 -12 -23 -32 -33 -43 -38 -44 -107 -142 -106 -150 0 -5 -9
-17 -20 -26 -12 -10 -21 -23 -21 -29 0 -6 -3 -12 -7 -14 -12 -5 -63 -83 -63
-96 0 -7 -4 -12 -8 -12 -5 0 -19 -19 -32 -42 -13 -24 -33 -59 -45 -78 -12 -19
-23 -39 -24 -45 -1 -5 -10 -18 -18 -27 -9 -10 -13 -18 -9 -18 4 0 0 -7 -8 -16
-9 -8 -14 -20 -11 -25 4 -5 2 -9 -4 -9 -6 0 -13 -11 -17 -25 -3 -14 -10 -25
-16 -25 -5 0 -6 -4 -3 -10 3 -5 2 -10 -2 -10 -5 0 -17 -22 -28 -50 -11 -27
-23 -50 -27 -50 -4 0 -7 -3 -6 -7 1 -5 -5 -21 -12 -38 -7 -16 -14 -32 -15 -35
-1 -3 -12 -27 -24 -55 -13 -27 -32 -72 -43 -100 -11 -27 -25 -61 -31 -75 -6
-14 -11 -27 -12 -30 -6 -25 -19 -60 -30 -85 -8 -17 -16 -42 -19 -55 -2 -14
-14 -54 -26 -90 -21 -65 -27 -83 -36 -129 -3 -13 -9 -32 -15 -43 -5 -10 -8
-18 -5 -18 2 0 0 -16 -6 -36 -5 -20 -11 -44 -14 -53 -2 -9 -8 -35 -14 -59 -5
-23 -13 -58 -16 -78 -3 -20 -8 -46 -10 -58 -14 -75 -32 -190 -40 -261 -1 -16
-6 -61 -11 -100 -10 -87 -11 -687 -1 -775 18 -154 35 -276 60 -410 5 -30 11
-65 13 -76 2 -12 8 -30 14 -41 5 -11 8 -23 5 -25 -2 -3 0 -16 5 -30 5 -14 12
-38 14 -54 3 -16 12 -54 21 -84 8 -30 18 -66 21 -80 4 -14 10 -34 15 -45 4
-11 14 -40 21 -65 7 -25 15 -49 18 -55 3 -5 6 -14 7 -20 4 -24 9 -40 14 -45 3
-3 14 -30 24 -60 10 -30 25 -65 33 -78 7 -12 11 -27 8 -32 -3 -6 -1 -10 4 -10
6 0 10 -3 9 -7 -2 -8 3 -21 53 -128 12 -27 23 -52 24 -55 5 -22 41 -90 47 -90
5 0 8 -9 8 -20 0 -11 5 -20 10 -20 6 0 10 -5 10 -11 0 -6 17 -41 37 -77 21
-37 37 -71 35 -75 -1 -4 5 -10 13 -13 8 -3 13 -10 10 -14 -3 -4 2 -13 10 -20
8 -7 15 -16 15 -21 0 -10 68 -116 88 -137 6 -7 12 -20 12 -27 0 -8 8 -19 17
-24 10 -6 15 -11 11 -11 -5 0 2 -12 15 -26 12 -14 21 -28 19 -31 -2 -2 6 -13
17 -22 12 -10 21 -23 21 -30 0 -6 5 -11 10 -11 6 0 10 -6 10 -13 0 -7 9 -19
20 -27 11 -8 20 -19 20 -25 0 -6 9 -18 20 -28 11 -9 20 -23 20 -29 0 -7 9 -19
20 -26 11 -7 20 -20 20 -29 0 -9 3 -13 7 -10 3 4 17 -9 30 -28 13 -19 28 -35
33 -35 6 0 10 -5 10 -11 0 -13 54 -71 225 -243 158 -158 222 -216 229 -208 3
3 6 -1 6 -9 0 -8 14 -27 30 -43 17 -16 30 -33 30 -38 0 -5 5 -6 10 -3 6 3 10
1 10 -6 0 -6 19 -31 43 -55 93 -98 189 -192 247 -244 33 -30 76 -70 96 -88 19
-17 39 -32 44 -32 6 0 10 -4 10 -8 0 -4 30 -31 68 -59 37 -29 92 -78 122 -111
30 -32 67 -72 82 -88 15 -16 32 -33 38 -39 6 -5 24 -25 40 -42 17 -18 35 -33
41 -33 5 0 8 -3 6 -7 -3 -5 10 -19 29 -33 18 -14 34 -31 34 -38 0 -7 4 -11 8
-8 5 3 16 -6 26 -19 10 -14 22 -22 27 -20 4 3 10 -4 14 -15 3 -11 11 -20 16
-20 5 0 35 -25 66 -55 31 -30 60 -55 64 -55 4 0 21 -14 38 -31 17 -17 31 -28
31 -24 0 3 12 -6 26 -20 14 -14 30 -23 35 -20 5 4 9 -1 9 -9 0 -9 4 -16 9 -16
5 0 38 -29 74 -65 36 -36 68 -65 71 -65 3 0 24 -19 48 -43 24 -23 66 -60 92
-82 27 -22 55 -46 62 -53 8 -7 14 -11 14 -8 0 3 10 -5 23 -17 29 -28 94 -78
104 -80 4 -1 19 -13 33 -26 14 -12 39 -30 55 -38 17 -9 32 -19 35 -24 8 -12
159 -109 170 -109 6 0 10 -3 10 -7 0 -5 10 -13 23 -19 12 -6 62 -34 110 -62
49 -29 93 -52 98 -52 5 0 9 -4 9 -10 0 -5 5 -10 10 -10 6 0 65 -27 132 -60 66
-33 125 -57 129 -54 5 3 9 1 9 -5 0 -8 18 -17 50 -26 3 -1 21 -9 41 -18 20 -9
42 -17 50 -19 8 -2 17 -6 20 -11 3 -4 14 -9 25 -12 19 -4 96 -30 124 -42 8 -3
17 -7 20 -8 11 -2 86 -27 100 -32 18 -7 29 -10 55 -17 11 -2 32 -9 48 -15 15
-6 27 -8 27 -5 0 4 6 2 13 -3 6 -5 39 -16 72 -23 33 -8 63 -19 67 -24 5 -7 8
-7 8 2 0 8 5 9 18 3 14 -8 98 -28 152 -37 8 -1 26 -5 40 -8 32 -8 110 -19 133
-20 9 0 17 -3 17 -6 0 -3 15 -5 33 -5 17 1 37 -2 44 -7 7 -5 14 -5 18 2 5 8
10 8 20 0 7 -6 36 -12 64 -12 28 -1 51 -6 51 -11 0 -5 6 -4 13 2 8 6 16 8 20
5 11 -11 156 -18 392 -17 196 0 390 7 390 13 0 1 23 3 50 5 28 2 50 4 50 5 0
1 16 3 35 5 31 2 73 8 145 20 11 2 38 6 60 10 22 3 46 8 53 10 7 3 34 7 60 11
26 3 49 9 52 13 3 3 20 7 39 9 19 1 39 6 45 11 6 4 23 6 39 5 15 -2 27 1 27 5
0 4 6 8 13 9 11 0 28 4 80 18 12 3 30 7 40 7 9 1 17 5 17 10 0 4 6 7 13 6 6
-1 26 3 42 10 17 7 39 14 50 15 11 2 30 8 41 14 12 6 24 8 28 5 3 -3 6 -1 6 5
0 6 7 9 15 6 8 -4 15 -2 15 3 0 5 6 10 13 11 48 6 59 10 66 21 5 7 11 12 15
12 10 -2 60 11 71 19 6 4 26 13 45 20 42 16 101 41 198 86 41 19 77 34 82 34
5 0 10 3 12 8 2 4 33 22 70 40 38 18 97 50 133 72 36 22 71 41 78 43 11 2 18
6 51 35 8 6 18 12 21 12 9 0 99 62 106 73 3 5 9 8 13 7 10 -2 76 43 76 53 0 4
5 7 11 7 11 0 132 89 137 102 2 4 9 8 16 8 6 0 18 9 26 20 8 11 18 20 22 20
10 0 34 20 167 138 52 47 277 270 336 333 8 9 15 21 15 28 0 7 5 9 10 6 6 -3
10 -3 10 2 0 4 17 26 36 48 71 80 84 95 84 100 0 3 8 14 18 24 20 23 27 32 67
86 17 22 33 41 38 43 4 2 7 10 7 17 0 8 10 21 22 29 12 9 18 16 13 16 -5 0 2
12 16 27 14 16 34 45 44 66 11 20 22 37 26 37 4 0 10 8 13 18 10 28 65 113 81
124 5 4 6 8 1 8 -5 0 -1 9 9 20 10 11 14 20 9 20 -5 0 -4 4 3 8 12 8 206 382
198 382 -2 0 4 15 14 32 10 18 24 51 31 73 7 22 19 50 26 63 8 12 12 22 9 22
-3 0 4 18 15 40 11 22 18 40 14 40 -4 0 -1 7 6 15 7 8 10 15 6 15 -4 0 0 14 9
30 9 17 13 30 10 30 -3 0 0 10 7 23 6 12 13 27 14 34 1 7 11 43 23 80 19 66
44 156 43 160 -1 2 4 17 10 35 5 18 12 44 14 58 2 14 6 34 8 45 2 11 6 27 9
35 7 15 13 48 23 110 2 19 9 58 14 85 5 28 12 73 15 100 4 28 8 61 10 75 22
184 25 225 29 468 2 142 0 222 -7 222 -5 0 -5 5 2 13 6 8 8 17 4 20 -3 4 -7
30 -9 59 -5 99 -13 166 -39 353 -3 24 -29 169 -39 220 -1 6 -5 16 -9 23 -5 6
-6 12 -3 12 2 0 -3 28 -11 63 -8 34 -16 69 -18 77 -2 8 -4 15 -5 15 -1 0 -3 9
-5 20 -5 27 -24 91 -41 138 -8 20 -12 37 -9 37 2 0 -3 16 -11 35 -8 19 -11 35
-8 35 4 0 2 6 -3 13 -6 6 -16 30 -22 52 -7 22 -15 47 -18 55 -4 8 -7 17 -7 20
-1 3 -7 15 -14 26 -6 12 -8 24 -5 28 3 3 0 6 -7 6 -7 0 -11 3 -8 6 6 5 -8 41
-47 129 -26 59 -38 90 -37 98 1 4 -3 7 -9 7 -5 0 -7 5 -4 10 3 6 1 10 -5 10
-6 0 -8 5 -5 10 3 6 1 10 -5 10 -6 0 -9 4 -6 9 3 5 -1 14 -9 21 -8 7 -13 16
-10 20 3 4 -5 20 -16 34 -11 15 -22 32 -23 40 -1 7 -9 25 -19 39 -9 15 -17 34
-17 43 0 10 -3 14 -6 11 -4 -4 -18 17 -31 45 -13 29 -28 55 -32 58 -4 3 -14
20 -22 38 -8 17 -17 32 -21 32 -5 0 -8 7 -8 15 0 8 -4 15 -10 15 -5 0 -10 7
-10 15 0 8 -4 15 -10 15 -5 0 -10 6 -10 13 0 7 -8 22 -17 33 -10 11 -25 32
-33 46 -8 14 -24 38 -35 53 -11 15 -37 51 -57 79 -21 28 -45 61 -55 72 -10 12
-27 34 -38 49 -11 16 -26 34 -32 41 -7 7 -13 18 -13 24 0 6 -4 8 -10 5 -5 -3
-10 -2 -10 3 0 9 -37 54 -102 124 -21 22 -38 42 -38 45 0 11 -65 68 -74 65 -6
-2 -8 0 -4 4 4 3 -8 22 -27 41 -19 19 -35 40 -35 46 0 6 -3 8 -6 4 -3 -3 -17
7 -31 23 -13 16 -33 32 -44 35 -11 4 -18 9 -15 12 3 3 -11 20 -31 37 -20 17
-43 39 -52 49 -8 9 -21 17 -28 17 -7 0 -13 7 -13 15 0 8 -3 15 -7 15 -5 0 -20
10 -34 23 -15 12 -41 33 -59 47 -19 14 -45 35 -58 48 -14 12 -28 22 -32 22 -3
0 -39 32 -79 70 -41 39 -75 70 -76 70 -2 0 -33 28 -69 63 -36 34 -79 73 -97
87 -17 14 -37 30 -43 35 -6 6 -36 30 -66 54 -64 51 -180 169 -180 183 0 5 -4
6 -10 3 -5 -3 -10 -2 -10 3 0 5 -41 49 -91 98 -50 49 -110 108 -134 132 -23
23 -46 42 -49 42 -8 0 -37 31 -110 114 -52 61 -306 319 -306 312 0 -4 -66 56
-120 109 -14 14 -30 25 -35 25 -6 0 -16 9 -23 20 -7 11 -16 20 -22 20 -5 0
-20 10 -33 23 -23 22 -58 50 -97 77 -12 8 -47 34 -79 57 -31 23 -61 43 -66 43
-6 0 -17 9 -25 20 -8 11 -18 20 -23 20 -4 0 -34 17 -65 38 -85 55 -95 61 -122
74 -14 7 -27 15 -30 18 -23 24 -396 208 -525 260 -11 4 -33 13 -50 21 -16 7
-32 13 -35 13 -3 1 -34 12 -70 25 -61 22 -92 32 -97 32 -1 1 -32 11 -68 24
-36 13 -65 21 -65 18 0 -3 -6 -1 -12 4 -11 9 -50 22 -83 28 -5 1 -12 3 -15 4
-9 4 -45 12 -65 14 -11 2 -26 6 -32 10 -7 5 -17 5 -23 2 -5 -3 -10 -2 -10 2 0
5 -10 10 -22 11 -27 3 -63 10 -63 12 0 1 -16 4 -35 7 -19 2 -37 8 -40 11 -3 4
-18 8 -35 9 -34 2 -90 10 -90 13 0 1 -16 3 -35 5 -19 2 -48 6 -65 9 -27 6
-117 16 -170 20 -11 1 -25 5 -32 9 -6 4 -15 3 -18 -3 -4 -7 -11 -8 -18 -1 -13
10 -772 13 -782 3z m590 -56 c61 -3 142 -8 180 -11 39 -3 86 -7 106 -9 19 -1
40 -6 46 -9 7 -4 15 -3 18 3 5 7 11 8 19 1 6 -5 36 -11 66 -13 30 -2 58 -6 61
-10 3 -5 29 -9 57 -10 29 -2 52 -6 52 -10 0 -4 8 -7 18 -7 30 -1 77 -8 92 -14
8 -4 29 -8 45 -11 17 -2 31 -5 33 -6 1 -2 7 -4 12 -5 6 -1 11 -3 13 -5 4 -3
41 -11 57 -12 8 0 21 -5 28 -11 6 -5 12 -7 12 -4 0 3 21 -1 48 -9 26 -8 56
-17 67 -20 33 -8 39 -10 68 -22 15 -7 31 -11 35 -10 4 1 18 -4 32 -12 14 -7
25 -12 25 -11 0 1 13 -2 28 -8 16 -6 34 -11 41 -11 7 0 16 -3 20 -7 4 -5 11
-8 14 -9 14 -2 86 -31 122 -49 14 -7 27 -13 30 -13 7 -1 46 -16 95 -38 22 -10
43 -17 47 -16 3 1 12 -5 18 -13 7 -8 19 -15 27 -15 17 0 76 -31 81 -43 2 -4 8
-5 13 -1 5 3 9 0 9 -7 0 -7 3 -9 7 -6 3 4 11 3 17 -2 9 -7 47 -28 151 -85 11
-6 23 -15 26 -19 3 -5 8 -7 10 -6 4 3 35 -15 100 -58 19 -12 40 -23 46 -23 6
0 14 -7 17 -16 4 -9 9 -14 12 -11 4 3 15 -4 26 -16 11 -12 17 -15 13 -7 -4 10
-2 9 8 -2 8 -10 17 -18 21 -18 6 0 29 -16 94 -65 7 -5 22 -18 33 -27 10 -10
22 -18 25 -18 3 0 25 -15 48 -32 22 -18 47 -37 54 -43 7 -5 23 -19 35 -30 12
-11 42 -36 67 -56 72 -59 114 -99 109 -104 -8 -7 -49 6 -49 16 0 5 -7 9 -15 9
-8 0 -15 4 -15 9 0 10 -42 27 -48 20 -2 -2 -8 4 -13 14 -6 9 -17 17 -24 17 -8
0 -15 5 -15 10 0 6 -4 10 -10 10 -5 0 -32 14 -61 30 -28 17 -56 32 -62 33 -6
1 -20 10 -31 19 -10 10 -23 15 -28 12 -4 -3 -8 0 -8 6 0 6 -4 8 -10 5 -5 -3
-10 -1 -10 4 0 6 -9 11 -20 11 -11 0 -20 3 -20 8 0 8 -81 47 -92 44 -5 -1 -8
3 -8 9 0 5 -4 7 -10 4 -5 -3 -10 -1 -10 5 0 6 -4 8 -10 5 -5 -3 -10 -1 -10 4
0 6 -3 10 -7 9 -5 0 -26 7 -48 16 -22 9 -49 21 -60 25 -11 5 -36 16 -55 24
-32 14 -78 30 -90 32 -3 0 -15 6 -27 13 -13 7 -23 10 -23 7 0 -3 -12 3 -27 12
-15 10 -29 17 -30 15 -2 -2 -47 11 -101 28 -53 18 -104 33 -112 35 -8 3 -38
11 -67 19 -28 7 -54 11 -57 8 -3 -3 -6 -1 -6 5 0 5 -6 10 -12 11 -16 1 -48 8
-113 23 -27 6 -59 12 -70 14 -11 2 -20 4 -20 5 0 1 -9 3 -20 4 -11 2 -36 6
-55 11 -19 4 -46 9 -60 11 -14 1 -36 5 -50 8 -14 3 -47 8 -75 11 -27 3 -63 8
-80 10 -188 32 -705 37 -930 11 -16 -2 -59 -7 -95 -10 -36 -3 -76 -8 -89 -11
-13 -2 -42 -7 -65 -9 -22 -3 -53 -8 -67 -11 -38 -7 -222 -46 -234 -49 -5 -2
-28 -7 -50 -11 -55 -12 -55 -12 -57 -15 -2 -1 -10 -3 -18 -5 -82 -18 -258 -73
-385 -120 -38 -15 -74 -28 -80 -29 -5 -1 -21 -8 -35 -14 -14 -6 -59 -25 -100
-43 -116 -48 -225 -101 -228 -111 -2 -4 -8 -5 -14 -2 -6 4 -13 2 -17 -3 -3 -5
-19 -16 -36 -25 -105 -53 -162 -85 -232 -130 -23 -16 -46 -28 -52 -28 -6 0
-11 -5 -11 -11 0 -5 -4 -8 -9 -5 -5 3 -11 -1 -15 -9 -3 -8 -12 -15 -20 -15 -9
0 -24 -10 -36 -22 -11 -12 -20 -18 -20 -13 0 5 -13 -4 -30 -20 -16 -16 -30
-25 -30 -19 0 5 -4 4 -8 -1 -4 -6 -32 -28 -62 -50 -30 -22 -57 -42 -60 -45 -3
-3 -23 -18 -45 -35 -22 -16 -47 -37 -56 -47 -9 -10 -18 -15 -21 -12 -3 3 -15
-6 -26 -20 -10 -14 -22 -22 -26 -19 -3 3 -6 1 -6 -5 0 -6 -12 -18 -27 -26 -16
-8 -24 -15 -19 -16 5 0 -14 -17 -42 -39 -28 -21 -49 -41 -45 -45 3 -3 2 -6 -4
-6 -6 0 -63 -52 -127 -115 -64 -63 -114 -115 -111 -115 3 0 -12 -17 -33 -37
-42 -40 -179 -202 -228 -268 -16 -22 -34 -46 -41 -53 -6 -6 -15 -21 -18 -32
-4 -11 -11 -18 -16 -15 -5 4 -9 2 -9 -4 0 -6 -27 -49 -60 -96 -33 -47 -60 -88
-60 -91 0 -7 -44 -68 -55 -76 -5 -4 -6 -8 -1 -8 5 0 2 -8 -6 -17 -22 -26 -148
-257 -148 -271 0 -7 -4 -12 -9 -12 -5 0 -12 -14 -16 -31 -4 -17 -13 -33 -21
-36 -8 -3 -12 -8 -9 -12 2 -4 -4 -25 -15 -47 -10 -21 -26 -57 -36 -79 -10 -22
-22 -43 -27 -46 -5 -3 -8 -9 -7 -13 4 -15 -12 -66 -21 -66 -5 0 -8 -3 -7 -7 3
-9 -28 -98 -43 -125 -5 -10 -9 -27 -9 -38 0 -11 -4 -20 -8 -20 -4 0 -9 -12
-10 -27 -1 -15 -8 -30 -15 -35 -6 -4 -9 -8 -5 -8 4 0 -2 -25 -12 -55 -10 -30
-16 -55 -13 -55 3 0 1 -6 -5 -13 -6 -7 -12 -26 -14 -42 -2 -17 -6 -32 -9 -35
-4 -4 -31 -109 -44 -175 -2 -11 -7 -31 -10 -45 -3 -14 -8 -38 -10 -55 -2 -16
-8 -42 -14 -57 -7 -18 -7 -29 0 -34 7 -4 7 -10 0 -18 -6 -7 -13 -30 -16 -51
-14 -103 -18 -132 -19 -157 0 -16 -3 -28 -6 -28 -3 0 -6 -26 -7 -58 -1 -31 -5
-88 -8 -127 -7 -84 -12 -486 -6 -499 2 -5 6 -45 8 -90 5 -95 10 -151 13 -151
1 0 4 -29 6 -65 3 -36 10 -68 16 -71 7 -4 6 -9 -1 -13 -6 -4 -8 -13 -4 -19 4
-7 8 -19 10 -27 1 -8 5 -33 8 -55 4 -22 9 -59 12 -83 3 -23 8 -42 12 -42 5 0
10 -30 14 -97 1 -13 5 -23 8 -23 3 0 6 -6 7 -12 1 -16 10 -53 12 -53 1 0 3 -9
5 -20 5 -26 13 -60 15 -60 1 0 3 -11 6 -24 2 -14 9 -30 14 -36 5 -7 8 -14 5
-17 -3 -3 2 -25 11 -49 9 -24 17 -51 19 -59 2 -15 5 -23 31 -89 8 -18 11 -37
8 -42 -3 -5 0 -9 5 -9 6 0 11 -9 11 -19 0 -11 5 -23 10 -26 6 -4 8 -11 5 -16
-4 -5 -1 -9 5 -9 6 0 8 -4 5 -10 -3 -5 1 -20 9 -32 8 -13 16 -27 17 -33 1 -5
8 -24 16 -42 7 -18 13 -37 13 -43 0 -5 5 -10 11 -10 5 0 7 -4 4 -10 -3 -5 -2
-10 4 -10 6 0 8 -7 5 -15 -4 -8 -1 -15 5 -15 6 0 11 -7 11 -15 0 -18 20 -57
35 -67 6 -4 7 -8 3 -8 -4 0 5 -24 20 -52 14 -29 25 -56 24 -60 -1 -5 2 -8 7
-8 9 0 24 -33 26 -53 0 -4 5 -11 11 -15 5 -4 16 -22 23 -39 8 -18 17 -33 22
-33 5 0 9 -9 9 -20 0 -11 4 -20 9 -20 5 0 12 -8 15 -17 6 -17 21 -42 73 -127
43 -69 -2 -38 -77 54 -80 97 -85 103 -103 122 -9 10 -17 23 -17 28 0 6 -4 10
-10 10 -5 0 -10 6 -10 14 0 8 -7 17 -16 20 -9 4 -14 9 -12 12 3 3 -7 19 -23
37 -16 17 -29 36 -29 41 0 5 -10 17 -22 27 -11 11 -17 19 -12 19 5 0 4 4 -1 8
-15 10 -117 162 -109 162 3 0 -6 14 -20 31 -14 17 -24 35 -20 40 3 5 -2 9 -11
9 -9 0 -14 4 -10 9 3 5 0 15 -7 23 -7 7 -26 40 -43 73 -16 33 -33 62 -36 65
-8 6 -24 53 -21 63 1 4 -2 7 -7 7 -11 0 -44 66 -129 262 -11 25 -18 49 -14 52
3 3 0 6 -6 6 -7 0 -11 3 -10 8 1 4 -6 24 -15 46 -9 21 -14 42 -11 47 3 5 0 9
-5 9 -6 0 -11 8 -11 18 0 10 -3 22 -7 26 -4 3 -8 12 -9 19 -1 7 -11 37 -23 67
-11 30 -22 65 -24 77 -2 12 -6 26 -10 29 -4 4 -7 18 -7 31 0 12 -4 23 -9 23
-6 0 -9 8 -9 18 1 9 -5 37 -12 62 -6 25 -13 52 -15 60 -2 8 -10 45 -19 83 -9
37 -18 81 -21 99 -3 17 -7 34 -9 37 -2 3 -7 29 -10 56 -4 28 -9 63 -12 79 -4
16 -8 45 -9 65 -2 20 -4 36 -5 36 -5 0 -16 106 -27 255 -13 169 -6 598 11 711
2 13 7 47 10 74 3 28 8 61 11 75 3 14 7 44 9 65 3 22 7 51 10 65 3 14 7 41 11
60 3 19 7 40 8 45 2 6 9 40 17 77 8 42 17 65 24 61 6 -4 5 0 -1 9 -7 8 -10 17
-8 20 3 3 7 14 10 24 2 11 16 60 30 109 14 50 27 95 28 100 2 6 6 15 9 21 4 6
9 21 11 35 3 13 12 41 20 62 9 20 13 37 10 37 -3 0 0 6 6 13 6 8 8 17 4 20 -3
4 -1 7 6 7 6 0 11 6 10 13 -1 6 4 26 11 42 7 17 14 35 15 40 2 6 21 53 44 105
22 52 41 100 41 106 0 6 7 17 15 24 9 7 13 15 11 18 -3 3 3 17 13 31 10 14 19
28 19 31 0 9 26 65 33 70 6 5 17 32 16 40 -1 3 15 30 34 60 30 47 45 77 52
100 0 3 10 13 21 22 12 10 17 17 12 18 -4 0 4 16 18 35 15 19 24 35 21 35 -3
0 -1 6 5 13 38 45 50 61 50 68 0 5 9 19 20 31 10 13 20 28 22 33 1 6 14 23 28
38 14 16 24 31 22 34 -2 2 6 13 17 22 12 10 21 22 21 27 0 5 16 27 35 49 54
63 58 68 99 120 40 51 54 67 105 121 17 17 27 34 24 38 -4 3 1 6 10 6 9 0 17
4 17 8 0 5 40 49 89 98 104 104 211 204 211 197 0 -2 15 11 33 30 17 18 48 45
67 59 19 14 45 35 57 47 12 12 26 21 32 21 5 0 11 4 13 8 5 12 125 102 137
102 6 0 15 9 21 20 6 11 15 18 21 15 5 -4 9 -1 9 4 0 6 7 11 15 11 8 0 15 5
15 10 0 6 7 10 15 10 9 0 18 7 21 15 4 8 10 15 15 15 4 0 39 20 76 44 84 54
169 103 206 117 15 6 27 16 27 22 0 6 3 7 6 4 4 -4 19 2 33 12 30 20 62 35 74
33 4 -1 7 2 7 8 0 5 4 10 10 10 5 0 40 15 78 33 38 19 92 42 120 52 29 11 52
23 52 27 0 4 3 7 8 6 15 -3 62 15 62 24 0 5 4 7 8 4 5 -3 19 1 33 7 13 7 58
23 99 37 41 13 79 27 85 32 5 4 19 8 32 8 13 0 23 3 23 8 0 4 14 8 32 9 17 1
35 7 38 14 4 6 10 10 14 9 8 -3 92 14 99 20 3 2 23 7 61 15 16 3 34 9 40 13 6
3 20 7 31 7 11 0 25 3 30 6 6 4 18 5 28 4 9 -2 17 1 17 5 0 5 8 9 18 9 9 0 31
2 47 5 17 2 40 4 53 5 13 1 21 4 19 9 -3 4 11 7 31 8 21 1 57 4 82 8 58 9 104
15 160 21 25 2 65 7 90 10 25 2 103 7 175 10 71 4 130 7 131 8 3 3 127 -1 259
-7z m4365 -2696 c9 -8 15 -18 13 -22 -2 -5 0 -8 5 -8 13 0 111 -98 104 -104
-3 -4 2 -6 11 -6 10 0 17 -4 17 -9 0 -5 17 -27 38 -49 20 -22 43 -49 51 -60 8
-12 18 -19 23 -16 5 3 7 1 6 -4 -3 -8 49 -75 90 -118 6 -7 12 -15 12 -18 0 -3
8 -15 18 -26 45 -50 57 -67 60 -80 2 -8 12 -20 23 -28 10 -7 19 -18 19 -23 0
-6 6 -16 13 -24 28 -29 45 -54 41 -58 -2 -2 7 -16 21 -31 14 -15 25 -34 25
-42 0 -7 5 -14 10 -14 6 0 10 -7 10 -15 0 -7 8 -18 18 -24 9 -5 16 -12 15 -15
-4 -14 10 -45 18 -40 5 3 9 -4 9 -15 0 -12 5 -21 10 -21 6 0 10 -7 10 -16 0
-8 5 -12 10 -9 6 4 10 3 9 -2 -4 -18 14 -62 27 -67 8 -3 14 -14 14 -25 0 -11
3 -21 8 -23 4 -1 22 -36 41 -75 19 -40 38 -73 41 -73 4 0 7 -6 7 -12 0 -7 13
-42 30 -78 60 -131 66 -145 69 -158 1 -7 11 -31 22 -52 10 -22 15 -37 10 -34
-5 3 0 -9 10 -28 16 -30 55 -139 58 -163 0 -5 6 -23 12 -38 7 -16 12 -34 12
-41 0 -7 3 -16 7 -20 6 -6 10 -17 17 -56 1 -8 5 -22 8 -30 7 -18 27 -96 32
-125 1 -11 6 -27 9 -35 3 -8 8 -28 11 -45 5 -29 12 -66 21 -115 9 -41 12 -62
19 -115 4 -27 9 -63 12 -80 2 -16 7 -48 10 -70 11 -77 13 -101 21 -210 9 -142
9 -484 -2 -600 -5 -49 -9 -102 -9 -117 -1 -16 -3 -28 -6 -28 -3 0 -6 -19 -6
-43 -1 -23 -5 -60 -9 -81 -4 -22 -8 -54 -10 -70 -2 -17 -4 -33 -5 -36 -3 -6
-3 -10 -14 -75 -9 -50 -11 -65 -21 -108 -3 -12 -7 -31 -10 -42 -11 -50 -14
-64 -29 -120 -15 -55 -25 -94 -30 -120 -1 -5 -4 -14 -8 -20 -7 -12 -20 -72
-18 -81 1 -4 -2 -10 -7 -13 -7 -5 -46 -113 -47 -133 -1 -3 -4 -10 -8 -14 -5
-4 -8 -16 -8 -26 0 -10 -5 -18 -11 -18 -5 0 -8 -4 -5 -8 2 -4 -2 -23 -11 -42
-8 -19 -19 -44 -24 -55 -11 -25 -32 -78 -34 -85 0 -3 -9 -20 -18 -37 -10 -18
-15 -33 -12 -33 4 0 -1 -7 -9 -16 -9 -8 -14 -20 -11 -25 4 -5 1 -9 -4 -9 -6 0
-10 -3 -9 -7 1 -9 -30 -74 -67 -140 -13 -24 -20 -43 -17 -43 4 0 3 -4 -3 -8
-5 -4 -19 -23 -29 -42 -11 -19 -22 -37 -25 -40 -3 -3 -17 -26 -30 -53 -13 -26
-32 -57 -42 -68 -10 -12 -16 -26 -13 -30 3 -5 0 -9 -6 -9 -6 0 -15 -11 -20
-25 -5 -14 -14 -25 -20 -25 -6 0 -8 -5 -5 -10 3 -5 1 -10 -5 -10 -6 0 -8 -5
-5 -10 3 -6 -1 -13 -9 -16 -9 -3 -16 -11 -16 -18 0 -6 -14 -27 -30 -46 -17
-19 -33 -43 -36 -52 -3 -10 -9 -18 -14 -18 -5 0 -11 -8 -14 -17 -3 -10 -18
-31 -33 -48 -16 -16 -40 -46 -54 -65 -26 -35 -34 -44 -107 -129 -124 -145
-325 -345 -448 -446 -20 -16 -49 -42 -64 -57 -15 -16 -33 -28 -38 -28 -6 0
-12 -4 -14 -8 -1 -5 -28 -27 -59 -49 -31 -23 -63 -48 -71 -57 -9 -8 -22 -17
-29 -18 -8 -2 -25 -14 -38 -28 -13 -13 -31 -25 -40 -27 -9 -1 -17 -7 -19 -13
-2 -5 -8 -8 -13 -4 -5 3 -9 0 -9 -6 0 -6 -11 -15 -25 -20 -14 -5 -25 -14 -25
-20 0 -6 -4 -8 -10 -5 -5 3 -10 1 -10 -4 0 -6 -7 -11 -15 -11 -8 0 -15 -4 -15
-9 0 -5 -8 -11 -17 -15 -10 -3 -40 -19 -68 -36 -27 -17 -57 -34 -65 -37 -8 -4
-17 -9 -20 -12 -9 -11 -308 -163 -326 -167 -6 -1 -35 -13 -65 -27 -30 -13 -81
-35 -114 -48 -33 -13 -64 -27 -70 -31 -5 -4 -15 -8 -21 -8 -7 0 -25 -5 -41
-12 -15 -6 -31 -12 -35 -13 -5 -2 -9 -3 -10 -4 -2 -2 -14 -4 -27 -7 -14 -2
-30 -9 -36 -14 -7 -5 -15 -7 -18 -3 -4 3 -7 1 -7 -6 0 -7 -4 -10 -8 -7 -4 2
-35 -4 -67 -15 -33 -11 -68 -21 -80 -24 -11 -3 -65 -16 -120 -30 -55 -15 -110
-28 -122 -31 -55 -10 -69 -13 -90 -18 -45 -10 -119 -20 -130 -18 -7 2 -13 -1
-13 -5 0 -4 -15 -8 -32 -7 -18 0 -37 -2 -43 -5 -5 -3 -23 -6 -40 -7 -16 -1
-57 -6 -90 -10 -33 -4 -71 -7 -85 -7 -14 -1 -28 -5 -32 -11 -5 -7 -8 -7 -8 2
0 9 -5 10 -17 4 -9 -6 -29 -6 -45 -2 -15 5 -30 5 -33 0 -2 -4 -25 -7 -50 -6
-25 1 -45 -3 -46 -9 0 -5 -3 -4 -6 3 -2 6 -9 10 -14 7 -13 -9 -234 -9 -248 -1
-6 4 -11 1 -11 -6 0 -8 -3 -9 -8 -3 -4 6 -38 10 -77 9 -38 0 -74 2 -79 5 -9 4
-88 10 -193 14 -24 1 -43 4 -43 7 0 3 -20 6 -45 7 -25 1 -51 5 -56 9 -6 3 -31
8 -57 10 -52 5 -97 11 -97 14 0 2 -18 6 -60 13 -16 3 -52 11 -80 17 -27 7 -57
14 -65 15 -8 1 -22 5 -30 8 -21 9 -72 19 -92 19 -10 -1 -18 3 -18 7 0 5 -12
11 -27 14 -16 3 -46 10 -68 17 -22 6 -47 13 -55 15 -8 2 -17 4 -20 5 -3 1 -8
2 -12 1 -5 0 -8 3 -8 7 0 4 -12 9 -26 10 -15 1 -32 7 -39 12 -7 5 -24 11 -39
12 -14 1 -26 5 -26 8 0 3 -17 12 -37 19 -21 7 -57 21 -80 32 -24 10 -47 19
-51 19 -5 0 -36 14 -70 30 -34 17 -65 30 -68 30 -11 0 -120 54 -136 69 -10 8
-18 11 -18 6 0 -4 -6 -3 -12 3 -7 5 -40 24 -73 41 -33 18 -67 36 -75 41 -8 5
-51 30 -95 55 -44 26 -82 50 -85 54 -3 3 -22 15 -42 26 -21 11 -38 24 -38 29
0 5 -3 7 -6 3 -3 -3 -15 3 -27 14 -11 10 -27 19 -34 19 -8 0 -11 5 -8 10 3 6
-1 10 -9 10 -9 0 -25 9 -35 19 -11 11 -32 28 -48 38 -15 9 -32 23 -36 30 -4 7
-13 13 -18 13 -12 0 -43 29 -38 35 3 2 24 -7 49 -20 25 -14 62 -32 83 -42 20
-10 37 -21 37 -25 0 -5 4 -8 10 -8 5 0 39 -14 75 -30 36 -17 69 -30 74 -30 5
0 14 -7 21 -15 7 -8 21 -15 31 -15 11 0 27 -4 37 -10 9 -5 33 -15 52 -23 19
-8 52 -22 73 -32 21 -9 50 -18 64 -19 13 -2 28 -8 32 -14 4 -7 19 -13 34 -14
15 -1 27 -6 27 -10 0 -4 8 -8 19 -8 10 0 35 -7 55 -15 20 -9 41 -13 46 -10 6
4 10 1 10 -4 0 -6 10 -11 23 -11 13 0 28 -5 35 -12 7 -7 12 -9 12 -6 0 4 15 2
33 -4 29 -9 68 -20 122 -34 11 -3 29 -7 40 -9 25 -4 56 -11 117 -26 26 -6 51
-8 57 -5 5 3 11 1 13 -4 2 -6 23 -12 48 -15 25 -2 46 -5 48 -6 1 -1 11 -3 22
-4 11 -1 21 -4 23 -5 1 -1 16 -3 32 -5 17 -1 48 -5 70 -8 85 -12 145 -19 213
-22 39 -1 74 -5 79 -8 21 -12 666 2 742 17 14 3 53 8 86 12 33 3 71 8 85 10
14 2 43 6 65 9 43 6 80 13 80 15 0 1 14 3 31 5 17 3 71 14 120 26 49 11 96 22
104 24 32 7 216 56 230 62 8 4 17 7 20 8 3 0 37 11 75 24 39 13 75 24 80 26 6
1 23 7 38 13 16 7 33 12 38 12 5 0 9 4 9 10 0 5 3 9 8 9 16 -3 72 14 72 22 0
5 10 9 21 9 12 0 37 9 55 21 19 11 34 17 34 13 0 -4 9 1 20 11 11 10 20 15 20
11 0 -4 6 -4 13 1 6 4 14 8 17 9 18 4 86 38 91 46 3 5 9 9 13 8 11 -2 66 24
66 32 0 5 7 8 16 8 9 0 28 8 42 18 15 11 41 25 59 33 17 7 29 17 26 23 -3 5
-1 6 4 3 6 -4 27 4 47 18 20 13 36 21 36 17 0 -3 7 3 15 15 9 13 22 20 30 17
8 -4 18 1 21 10 3 9 10 14 14 11 4 -2 15 4 25 15 10 11 23 20 30 20 7 0 20 9
30 20 10 11 23 20 30 20 6 0 21 9 33 20 12 12 22 17 22 13 0 -4 5 0 11 10 6 9
14 15 20 12 5 -4 9 -2 9 3 0 5 26 26 57 48 32 21 68 50 80 63 13 13 23 20 23
16 0 -4 8 2 19 13 10 12 22 22 25 22 4 0 13 6 21 13 7 6 34 30 60 52 26 22 68
58 93 80 56 49 304 295 298 295 -2 0 12 17 32 38 20 20 57 62 82 92 25 30 49
60 55 66 5 6 19 23 30 38 11 15 30 40 43 54 13 15 30 39 40 55 9 15 20 27 24
27 4 0 8 7 8 15 0 8 4 15 8 15 4 0 16 15 27 33 10 17 25 38 32 45 7 7 13 19
13 27 0 7 7 15 15 19 8 3 15 12 15 21 0 8 5 15 11 15 5 0 8 4 5 9 -4 5 -2 11
2 13 12 4 92 132 92 146 0 6 10 21 23 33 12 12 15 18 7 14 -12 -7 -12 -5 1 11
27 32 89 151 82 158 -3 3 -2 6 4 6 6 0 16 13 22 30 5 16 16 30 23 30 9 0 9 3
-2 10 -10 6 -11 10 -2 10 6 0 12 7 12 15 0 8 4 15 8 15 5 0 9 6 9 13 0 6 15
44 33 82 18 39 33 76 33 83 0 6 4 12 9 12 4 0 7 3 6 7 -1 5 6 26 16 48 10 22
19 50 19 62 1 11 5 19 10 16 6 -4 11 20 8 39 0 5 3 8 7 8 5 0 9 6 10 13 3 34
8 53 14 57 4 3 10 17 12 30 2 14 5 27 6 30 2 3 2 8 1 13 0 4 4 7 10 7 5 0 7 5
4 10 -3 6 -2 10 4 10 6 0 8 7 5 15 -4 8 1 26 10 40 11 16 12 25 5 25 -8 0 -8
4 -2 13 10 13 37 94 38 114 0 6 4 15 8 19 4 4 1 14 -6 22 -9 13 -9 14 1 8 12
-7 14 -4 15 32 1 9 6 20 12 24 6 5 5 8 -4 8 -12 0 -12 2 0 18 8 9 14 33 14 52
0 19 3 37 7 40 6 5 15 53 21 117 2 12 5 25 9 28 3 4 4 20 1 36 -2 16 0 29 4
29 5 0 9 15 10 33 4 80 10 134 17 145 4 7 2 12 -5 12 -8 0 -8 4 1 15 7 9 10
27 6 45 -3 17 -2 30 2 30 4 0 7 48 6 108 0 59 3 117 7 128 4 12 5 25 1 29 -11
10 -8 169 3 177 6 5 5 8 -4 8 -11 0 -11 3 -1 15 7 8 8 15 4 15 -8 0 -12 43
-14 178 0 28 -5 52 -11 52 -6 0 -6 6 0 19 6 10 8 20 6 23 -7 7 -24 129 -28
201 -1 15 -4 27 -7 27 -4 0 -7 10 -8 23 -4 64 -8 86 -14 92 -4 4 -4 13 -1 21
3 8 0 21 -7 29 -7 8 -10 15 -7 15 3 0 -1 28 -9 62 -8 34 -17 72 -19 83 -2 11
-4 22 -5 25 -2 3 -2 9 -1 14 1 5 -6 18 -16 29 -10 11 -12 17 -5 13 6 -4 12 -2
12 3 0 6 -4 11 -8 11 -4 0 -9 12 -10 26 -1 15 -6 32 -11 38 -4 6 -14 35 -21
64 -6 28 -15 52 -18 52 -4 0 -8 12 -9 27 0 15 -6 29 -12 31 -6 2 -9 8 -6 13 4
5 -3 30 -14 55 -12 25 -18 50 -15 55 3 5 0 9 -5 9 -6 0 -11 11 -11 24 0 13 -5
26 -10 28 -6 2 -12 14 -15 28 -2 14 -16 49 -30 78 -14 28 -25 59 -25 67 0 8
-4 15 -10 15 -5 0 -10 7 -10 15 0 8 -9 30 -19 49 -11 19 -17 37 -14 40 4 3 1
6 -6 6 -7 0 -9 5 -6 10 3 6 1 10 -4 10 -6 0 -11 8 -11 19 0 10 -7 24 -15 31
-8 7 -13 16 -10 20 2 4 -7 22 -20 40 -13 18 -22 37 -19 41 3 5 0 9 -5 9 -6 0
-11 7 -11 15 0 8 -5 15 -11 15 -5 0 -8 4 -4 9 3 5 1 12 -5 16 -5 3 -17 23 -27
43 -9 20 -25 46 -35 56 -10 11 -18 24 -18 30 0 12 -51 89 -63 94 -4 2 -5 7 -2
12 2 4 -4 15 -15 25 -11 10 -20 24 -20 32 0 7 -4 13 -10 13 -5 0 -10 5 -10 11
0 6 -6 17 -12 24 -29 32 -38 45 -38 52 0 4 -14 24 -30 43 -49 57 -50 59 -50
65 0 9 23 1 40 -15z"/>
</g>
</svg>
