<?xml version="1.0" standalone="no"?>
<!DOCTYPE svg PUBLIC "-//W3C//DTD SVG 20010904//EN"
 "http://www.w3.org/TR/2001/REC-SVG-20010904/DTD/svg10.dtd">
<svg version="1.0" xmlns="http://www.w3.org/2000/svg"
 width="1214.000000pt" height="1214.000000pt" viewBox="0 0 1214.000000 1214.000000"
 preserveAspectRatio="xMidYMid meet">
<metadata>
Created by potrace 1.14, written by Peter Selinger 2001-2017
</metadata>
<g transform="translate(0.000000,1214.000000) scale(0.100000,-0.100000)"
fill="#000000" stroke="none">
<path d="M4955 11890 c-1211 -76 -2312 -570 -3166 -1420 -390 -388 -688 -805
-934 -1305 -272 -553 -426 -1103 -487 -1740 -18 -196 -15 -674 6 -880 65 -632
227 -1192 507 -1745 268 -532 618 -988 1099 -1436 47 -43 144 -144 215 -223
141 -156 326 -332 500 -474 61 -49 167 -151 236 -226 69 -75 181 -187 250
-250 68 -63 148 -136 177 -164 29 -28 101 -89 161 -136 60 -47 169 -142 243
-210 1067 -990 2493 -1450 3936 -1271 1418 176 2685 965 3477 2165 755 1144
992 2567 649 3905 -155 605 -443 1207 -813 1700 -220 292 -529 619 -780 825
-179 146 -227 188 -377 329 -70 65 -182 163 -248 217 -68 55 -167 150 -226
216 -58 64 -169 175 -246 247 -78 72 -181 176 -229 231 -48 55 -149 161 -224
235 -808 799 -1837 1283 -2971 1395 -189 19 -578 26 -755 15z m625 -80 c829
-62 1603 -322 2285 -768 214 -139 467 -335 610 -471 95 -91 90 -93 -35 -14
-675 431 -1381 676 -2185 759 -230 24 -705 24 -930 0 -629 -66 -1146 -213
-1690 -481 -497 -244 -903 -534 -1296 -925 -390 -388 -688 -805 -934 -1305
-272 -553 -426 -1103 -487 -1740 -18 -196 -15 -674 6 -880 83 -811 317 -1479
774 -2215 l16 -25 -28 25 c-42 37 -218 249 -311 375 -442 593 -754 1319 -874
2030 -57 338 -75 586 -68 940 12 559 104 1049 294 1565 318 864 900 1639 1648
2195 725 540 1598 865 2505 934 155 12 546 12 700 1z m5028 -3269 c481 -522
814 -1079 1037 -1732 519 -1523 236 -3223 -747 -4489 -792 -1019 -1944 -1677
-3213 -1835 -1226 -152 -2487 180 -3461 910 -138 104 -158 128 -63 74 110 -63
376 -190 519 -247 457 -184 952 -301 1443 -341 162 -14 635 -14 787 -1 1190
103 2239 589 3070 1420 674 673 1128 1505 1324 2424 84 394 110 668 103 1116
-8 551 -69 925 -227 1400 -174 523 -374 923 -673 1350 -44 63 -90 126 -101
140 -61 71 103 -82 202 -189z m-5783 -62 c46 -14 283 -139 702 -370 l633 -349
632 349 c348 192 653 355 678 364 160 54 320 43 470 -33 123 -62 223 -172 277
-302 35 -85 44 -246 18 -333 -29 -100 -73 -176 -144 -245 -61 -60 -93 -79
-423 -249 l-357 -185 102 -56 c56 -31 226 -125 378 -209 152 -84 298 -172 325
-196 235 -205 244 -567 19 -790 -65 -64 -100 -86 -443 -275 -204 -113 -372
-207 -372 -210 0 -3 82 -48 183 -99 465 -238 523 -271 576 -323 73 -71 110
-130 143 -222 52 -151 32 -336 -52 -466 -78 -122 -230 -224 -380 -256 -89 -19
-226 -14 -310 11 -30 9 -340 174 -688 367 l-632 350 -633 -350 c-347 -193
-657 -358 -687 -367 -84 -25 -221 -30 -310 -11 -122 26 -211 75 -300 164 -117
118 -159 218 -160 384 0 155 58 289 173 399 51 48 122 88 575 320 100 51 182
96 182 99 0 3 -168 97 -372 210 -343 189 -378 210 -443 275 -223 222 -216 580
15 788 27 24 168 109 326 197 153 84 325 179 381 210 l102 56 -357 185 c-330
170 -362 189 -423 249 -107 105 -159 230 -159 379 1 108 12 157 58 250 78 161
256 285 447 315 58 9 181 -3 250 -25z"/>
<path d="M5897 6396 c-142 -73 -259 -137 -259 -141 0 -5 118 -69 261 -143
l261 -134 261 134 c143 74 261 138 261 143 0 7 -508 275 -522 275 -3 0 -121
-60 -263 -134z"/>
</g>
</svg>
