<?xml version="1.0" standalone="no"?>
<!DOCTYPE svg PUBLIC "-//W3C//DTD SVG 20010904//EN"
 "http://www.w3.org/TR/2001/REC-SVG-20010904/DTD/svg10.dtd">
<svg version="1.0" xmlns="http://www.w3.org/2000/svg"
 width="1636.000000pt" height="1636.000000pt" viewBox="0 0 1636.000000 1636.000000"
 preserveAspectRatio="xMidYMid meet">
<metadata>
Created by potrace 1.14, written by Peter Selinger 2001-2017
</metadata>
<g transform="translate(0.000000,1636.000000) scale(0.100000,-0.100000)"
fill="#000000" stroke="none">
<path d="M7680 15359 c-497 -31 -1073 -134 -1550 -276 -260 -78 -605 -201
-766 -274 -22 -10 -63 -27 -90 -37 -27 -11 -94 -41 -149 -67 -55 -26 -129 -61
-165 -77 -185 -87 -539 -289 -755 -432 -440 -291 -776 -566 -1156 -945 -510
-511 -894 -1022 -1232 -1641 -88 -162 -221 -431 -257 -520 -10 -25 -29 -70
-43 -100 -36 -80 -93 -219 -107 -265 -7 -22 -16 -44 -20 -50 -20 -26 -161
-474 -229 -725 -100 -370 -187 -905 -211 -1307 -20 -345 -10 -1005 20 -1250
26 -210 33 -268 56 -413 50 -317 142 -702 245 -1025 48 -151 161 -462 199
-550 10 -22 30 -69 45 -105 114 -270 318 -672 424 -835 78 -121 491 -543 743
-759 160 -137 371 -305 377 -300 2 2 -19 38 -47 81 -27 43 -61 98 -75 123 -14
25 -55 97 -91 160 -73 127 -272 523 -306 610 -12 30 -37 91 -57 134 -105 233
-253 681 -342 1031 -192 756 -258 1667 -176 2405 8 69 17 154 20 190 4 36 20
146 36 245 123 747 339 1415 674 2080 143 283 241 453 403 699 280 427 542
746 927 1131 278 278 476 452 739 648 50 37 120 90 156 117 84 62 372 248 525
338 255 149 547 297 767 388 62 25 136 57 163 69 105 49 602 217 797 270 278
75 649 152 863 179 22 3 94 12 160 21 333 43 952 60 1312 36 653 -44 1266
-168 1863 -376 152 -54 331 -121 390 -148 30 -13 107 -46 170 -73 234 -97 810
-405 938 -501 17 -13 32 -20 32 -16 0 15 -205 270 -345 429 -162 184 -438 463
-586 590 -121 105 -252 184 -564 339 -370 184 -696 316 -1095 444 -149 48
-467 132 -589 157 -42 8 -116 23 -166 34 -237 51 -630 101 -942 120 -198 12
-734 11 -933 -1z"/>
<path d="M9026 14293 c-1 -1 -78 -3 -171 -4 -94 -1 -217 -5 -275 -10 -120 -9
-348 -30 -370 -34 -8 -1 -42 -6 -75 -9 -259 -31 -663 -113 -950 -193 -318 -89
-737 -238 -985 -350 -126 -58 -425 -206 -535 -265 -1183 -643 -2200 -1673
-2827 -2863 -46 -88 -94 -180 -105 -205 -11 -25 -44 -92 -71 -150 -278 -579
-524 -1435 -592 -2055 -6 -55 -13 -111 -16 -125 -34 -199 -49 -955 -25 -1270
20 -257 77 -684 116 -864 46 -213 62 -282 91 -396 116 -447 292 -921 496
-1340 50 -102 94 -187 97 -190 3 -3 21 -35 39 -72 70 -140 365 -616 401 -646
33 -28 272 -183 396 -258 248 -149 656 -356 855 -434 30 -12 83 -35 118 -51
35 -16 66 -29 69 -29 4 0 65 -22 137 -49 599 -226 1289 -374 1961 -421 210
-15 735 -15 950 0 787 54 1547 237 2295 553 138 58 296 131 372 171 14 8 88
47 165 86 210 111 325 180 588 353 312 207 548 391 825 644 675 618 1180 1283
1570 2068 112 225 266 582 305 705 10 30 21 60 25 65 9 13 124 369 150 466
183 678 261 1252 261 1910 -1 231 -18 578 -36 719 -2 19 -9 80 -15 135 -66
586 -263 1321 -510 1895 -114 265 -286 613 -380 765 -20 33 -56 94 -80 135
-25 41 -88 141 -142 221 l-98 146 -162 105 c-758 489 -1559 819 -2423 998
-209 43 -588 100 -760 114 -229 18 -671 37 -679 29z m-3028 -2519 c42 -9 106
-27 142 -41 36 -14 509 -270 1052 -569 542 -299 990 -545 995 -546 5 -2 448
238 983 533 536 295 990 545 1009 554 162 82 409 108 603 65 334 -74 599 -321
693 -647 103 -355 -45 -744 -361 -946 -38 -24 -299 -162 -581 -308 -281 -145
-511 -264 -510 -265 1 -1 261 -144 577 -319 316 -174 605 -339 642 -366 142
-106 248 -262 305 -446 23 -78 26 -104 26 -233 0 -129 -3 -155 -27 -234 -55
-181 -163 -344 -302 -454 -34 -27 -279 -169 -545 -317 -266 -147 -526 -291
-576 -319 -51 -28 -93 -54 -93 -57 0 -3 235 -126 523 -273 287 -148 545 -283
572 -302 158 -104 290 -289 352 -491 23 -77 26 -106 27 -228 0 -117 -3 -153
-22 -220 -139 -489 -661 -773 -1177 -640 -104 27 -101 25 -1811 975 l-301 167
-409 -227 c-225 -124 -672 -372 -993 -549 -325 -180 -614 -334 -651 -347 -135
-45 -301 -62 -440 -44 -398 51 -713 321 -801 685 -24 100 -25 265 -3 373 28
139 106 295 199 400 106 119 163 153 727 442 401 206 534 278 525 286 -7 6
-255 145 -552 309 -297 164 -570 318 -606 341 -71 47 -176 151 -229 229 -158
230 -196 549 -94 807 56 143 175 295 298 382 33 24 313 182 621 351 308 170
564 311 568 315 5 4 -229 130 -519 279 -290 150 -554 291 -587 313 -120 82
-224 206 -292 350 -58 122 -70 184 -70 353 0 173 12 231 76 364 121 255 340
433 619 506 117 30 298 34 418 9z"/>
<path d="M7780 8449 c-223 -116 -409 -214 -413 -218 -7 -7 780 -419 820 -429
16 -4 844 421 835 429 -9 8 -827 429 -833 429 -2 -1 -186 -95 -409 -211z"/>
<path d="M12428 13938 c203 -212 401 -443 539 -632 29 -39 76 -103 105 -142
38 -51 77 -89 142 -135 230 -164 530 -415 732 -611 60 -60 113 -108 117 -108
3 0 -32 53 -80 118 -336 461 -864 1008 -1328 1377 -115 92 -308 234 -318 235
-4 0 37 -46 91 -102z"/>
<path d="M13272 12872 c2 -4 22 -39 46 -78 210 -336 361 -629 526 -1019 135
-319 250 -668 347 -1045 53 -205 129 -621 149 -815 7 -60 14 -113 16 -116 2
-3 11 -107 20 -230 20 -267 22 -754 5 -1014 -83 -1255 -500 -2472 -1207 -3518
-268 -396 -547 -730 -905 -1083 -539 -530 -1099 -933 -1769 -1272 -556 -282
-1138 -488 -1740 -617 -167 -36 -485 -89 -595 -100 -33 -3 -91 -10 -130 -15
-280 -36 -984 -48 -1285 -22 -497 44 -845 103 -1283 218 -261 69 -690 210
-831 273 -22 10 -93 40 -156 66 -157 64 -405 183 -585 281 -149 81 -384 219
-438 256 -41 29 -43 15 -5 -29 19 -21 69 -83 112 -138 43 -55 107 -131 141
-170 34 -38 98 -110 142 -160 197 -222 540 -546 656 -619 231 -148 748 -395
1092 -523 253 -94 577 -200 665 -218 19 -3 73 -17 120 -31 308 -86 859 -176
1250 -204 188 -13 874 -13 1072 0 312 21 707 80 1048 156 244 55 698 187 840
244 25 10 99 39 165 63 335 125 776 336 1047 500 40 24 88 52 106 61 47 24
328 209 457 301 297 211 601 469 883 749 610 603 1098 1292 1453 2048 49 104
89 190 89 193 0 2 21 53 46 112 99 229 226 593 294 843 141 511 219 975 251
1491 13 210 7 898 -10 1069 -59 602 -140 1005 -315 1575 -46 151 -155 446
-209 570 -19 44 -53 123 -75 175 -87 205 -227 480 -345 680 -66 111 -177 239
-406 468 -213 214 -357 343 -582 525 -149 120 -175 138 -167 119z"/>
<path d="M2271 3964 c74 -109 121 -172 238 -319 327 -410 734 -819 1136 -1140
133 -107 303 -234 345 -260 8 -5 -46 56 -120 136 -246 263 -422 474 -578 694
-79 110 -79 111 -227 218 -244 177 -466 363 -709 597 -55 52 -93 85 -85 74z"/>
</g>
</svg>
